<svg xmlns="http://www.w3.org/2000/svg" xmlns:xlink="http://www.w3.org/1999/xlink" width="375" viewBox="0 0 375 375" height="375" version="1.0"><defs><g id="a"><path d="M 21.390625 -5.15625 L 9.15625 -5.15625 L 7.125 0 L -0.203125 0 L 11.875 -27.984375 L 19.1875 -27.984375 L 30.984375 0 L 23.390625 0 Z M 19.3125 -10.5625 L 15.3125 -20.90625 L 11.234375 -10.5625 Z M 19.3125 -10.5625"/></g><g id="b"><path d="M 19.671875 0 L 15.515625 -7.875 L 9.921875 -7.875 L 9.921875 0 L 2.796875 0 L 2.796875 -27.984375 L 15.3125 -27.984375 C 19.019531 -27.984375 21.882812 -27.132812 23.90625 -25.4375 C 25.9375 -23.75 26.953125 -21.347656 26.953125 -18.234375 C 26.953125 -13.910156 25.257812 -10.910156 21.875 -9.234375 L 27.75 0 Z M 9.921875 -13.46875 L 15.3125 -13.46875 C 16.863281 -13.46875 18.0625 -13.851562 18.90625 -14.625 C 19.757812 -15.40625 20.1875 -16.53125 20.1875 -18 C 20.1875 -19.4375 19.757812 -20.523438 18.90625 -21.265625 C 18.0625 -22.015625 16.863281 -22.390625 15.3125 -22.390625 L 9.921875 -22.390625 Z M 9.921875 -13.46875"/></g><g id="c"><path d="M 9.921875 0 L 2.796875 0 L 2.796875 -27.984375 L 9.921875 -27.984375 Z M 9.921875 0"/></g><g id="d"><path d="M 28.625 0 L 22.34375 0 L 9.46875 -17.234375 L 9.46875 0 L 2.796875 0 L 2.796875 -27.984375 L 9.078125 -27.984375 L 21.984375 -10.71875 L 21.984375 -27.984375 L 28.625 -27.984375 Z M 28.625 0"/></g><g id="e"><path d="M 27.984375 -27.984375 L 27.984375 -11.75 C 27.984375 -8.050781 26.835938 -5.113281 24.546875 -2.9375 C 22.253906 -0.769531 19.148438 0.3125 15.234375 0.3125 C 11.285156 0.3125 8.144531 -0.769531 5.8125 -2.9375 C 3.476562 -5.113281 2.3125 -8.050781 2.3125 -11.75 L 2.3125 -27.984375 L 9.4375 -27.984375 L 9.4375 -11.75 C 9.4375 -9.882812 9.972656 -8.398438 11.046875 -7.296875 C 12.128906 -6.191406 13.539062 -5.640625 15.28125 -5.640625 C 16.976562 -5.640625 18.335938 -6.1875 19.359375 -7.28125 C 20.390625 -8.375 20.90625 -9.863281 20.90625 -11.75 L 20.90625 -27.984375 Z M 27.984375 -27.984375"/></g><g id="f"><path d="M 21.390625 -14.234375 L 27.546875 -14.234375 L 27.546875 -3.3125 C 26.023438 -2.25 24.191406 -1.378906 22.046875 -0.703125 C 19.898438 -0.0234375 17.851562 0.3125 15.90625 0.3125 C 11.644531 0.3125 8.085938 -1.050781 5.234375 -3.78125 C 2.378906 -6.507812 0.953125 -9.914062 0.953125 -14 C 0.953125 -18.050781 2.414062 -21.4375 5.34375 -24.15625 C 8.28125 -26.875 11.960938 -28.234375 16.390625 -28.234375 C 18.472656 -28.234375 20.539062 -27.859375 22.59375 -27.109375 C 24.644531 -26.359375 26.390625 -25.347656 27.828125 -24.078125 L 23.828125 -19.234375 C 22.816406 -20.160156 21.644531 -20.894531 20.3125 -21.4375 C 18.976562 -21.988281 17.660156 -22.265625 16.359375 -22.265625 C 14.066406 -22.265625 12.140625 -21.472656 10.578125 -19.890625 C 9.015625 -18.304688 8.234375 -16.34375 8.234375 -14 C 8.234375 -11.625 9.019531 -9.632812 10.59375 -8.03125 C 12.164062 -6.4375 14.113281 -5.640625 16.4375 -5.640625 C 17.925781 -5.640625 19.578125 -6.09375 21.390625 -7 Z M 21.390625 -14.234375"/></g><g id="g"><path d="M 28.625 0 L 21.515625 0 L 21.515625 -10.875 L 9.921875 -10.875 L 9.921875 0 L 2.796875 0 L 2.796875 -27.984375 L 9.921875 -27.984375 L 9.921875 -16.46875 L 21.515625 -16.46875 L 21.515625 -27.984375 L 28.625 -27.984375 Z M 28.625 0"/></g><g id="h"><path d="M 4.28125 -1.046875 C 4.601562 -1.046875 4.882812 -1.070312 5.125 -1.125 C 5.363281 -1.1875 5.585938 -1.269531 5.796875 -1.375 L 5.796875 -2.765625 L 4.84375 -2.765625 C 4.75 -2.765625 4.675781 -2.789062 4.625 -2.84375 C 4.570312 -2.894531 4.546875 -2.957031 4.546875 -3.03125 L 4.546875 -3.828125 L 7.09375 -3.828125 L 7.09375 -0.734375 C 6.894531 -0.597656 6.691406 -0.476562 6.484375 -0.375 C 6.273438 -0.269531 6.050781 -0.179688 5.8125 -0.109375 C 5.570312 -0.046875 5.316406 0 5.046875 0.03125 C 4.773438 0.0625 4.484375 0.078125 4.171875 0.078125 C 3.617188 0.078125 3.109375 -0.015625 2.640625 -0.203125 C 2.171875 -0.398438 1.765625 -0.671875 1.421875 -1.015625 C 1.078125 -1.359375 0.804688 -1.769531 0.609375 -2.25 C 0.421875 -2.726562 0.328125 -3.253906 0.328125 -3.828125 C 0.328125 -4.398438 0.421875 -4.925781 0.609375 -5.40625 C 0.796875 -5.882812 1.0625 -6.296875 1.40625 -6.640625 C 1.75 -6.984375 2.164062 -7.25 2.65625 -7.4375 C 3.144531 -7.632812 3.695312 -7.734375 4.3125 -7.734375 C 4.925781 -7.734375 5.460938 -7.640625 5.921875 -7.453125 C 6.378906 -7.265625 6.769531 -7.023438 7.09375 -6.734375 L 6.671875 -6.09375 C 6.585938 -5.957031 6.484375 -5.890625 6.359375 -5.890625 C 6.265625 -5.890625 6.175781 -5.921875 6.09375 -5.984375 C 5.976562 -6.046875 5.859375 -6.109375 5.734375 -6.171875 C 5.617188 -6.242188 5.488281 -6.300781 5.34375 -6.34375 C 5.207031 -6.394531 5.050781 -6.4375 4.875 -6.46875 C 4.695312 -6.5 4.488281 -6.515625 4.25 -6.515625 C 3.875 -6.515625 3.535156 -6.453125 3.234375 -6.328125 C 2.929688 -6.203125 2.671875 -6.019531 2.453125 -5.78125 C 2.234375 -5.550781 2.066406 -5.269531 1.953125 -4.9375 C 1.835938 -4.601562 1.78125 -4.234375 1.78125 -3.828125 C 1.78125 -3.378906 1.84375 -2.984375 1.96875 -2.640625 C 2.09375 -2.296875 2.265625 -2.003906 2.484375 -1.765625 C 2.703125 -1.535156 2.960938 -1.359375 3.265625 -1.234375 C 3.578125 -1.109375 3.914062 -1.046875 4.28125 -1.046875 Z M 4.28125 -1.046875"/></g><g id="i"><path d="M 8.109375 -3.828125 C 8.109375 -3.265625 8.015625 -2.742188 7.828125 -2.265625 C 7.640625 -1.785156 7.375 -1.367188 7.03125 -1.015625 C 6.695312 -0.671875 6.289062 -0.398438 5.8125 -0.203125 C 5.34375 -0.015625 4.816406 0.078125 4.234375 0.078125 C 3.660156 0.078125 3.132812 -0.015625 2.65625 -0.203125 C 2.175781 -0.398438 1.765625 -0.671875 1.421875 -1.015625 C 1.085938 -1.367188 0.828125 -1.785156 0.640625 -2.265625 C 0.453125 -2.742188 0.359375 -3.265625 0.359375 -3.828125 C 0.359375 -4.390625 0.453125 -4.90625 0.640625 -5.375 C 0.828125 -5.851562 1.085938 -6.265625 1.421875 -6.609375 C 1.765625 -6.960938 2.175781 -7.238281 2.65625 -7.4375 C 3.132812 -7.632812 3.660156 -7.734375 4.234375 -7.734375 C 4.816406 -7.734375 5.34375 -7.632812 5.8125 -7.4375 C 6.289062 -7.238281 6.695312 -6.960938 7.03125 -6.609375 C 7.375 -6.265625 7.640625 -5.851562 7.828125 -5.375 C 8.015625 -4.90625 8.109375 -4.390625 8.109375 -3.828125 Z M 6.640625 -3.828125 C 6.640625 -4.242188 6.582031 -4.617188 6.46875 -4.953125 C 6.363281 -5.285156 6.207031 -5.566406 6 -5.796875 C 5.789062 -6.035156 5.535156 -6.210938 5.234375 -6.328125 C 4.941406 -6.453125 4.609375 -6.515625 4.234375 -6.515625 C 3.859375 -6.515625 3.519531 -6.453125 3.21875 -6.328125 C 2.925781 -6.210938 2.671875 -6.035156 2.453125 -5.796875 C 2.242188 -5.566406 2.082031 -5.285156 1.96875 -4.953125 C 1.863281 -4.617188 1.8125 -4.242188 1.8125 -3.828125 C 1.8125 -3.398438 1.863281 -3.019531 1.96875 -2.6875 C 2.082031 -2.351562 2.242188 -2.070312 2.453125 -1.84375 C 2.671875 -1.613281 2.925781 -1.4375 3.21875 -1.3125 C 3.519531 -1.1875 3.859375 -1.125 4.234375 -1.125 C 4.609375 -1.125 4.941406 -1.1875 5.234375 -1.3125 C 5.535156 -1.4375 5.789062 -1.613281 6 -1.84375 C 6.207031 -2.070312 6.363281 -2.351562 6.46875 -2.6875 C 6.582031 -3.019531 6.640625 -3.398438 6.640625 -3.828125 Z M 6.640625 -3.828125"/></g><g id="j"><path d="M 7.5625 -3.828125 C 7.5625 -3.265625 7.46875 -2.75 7.28125 -2.28125 C 7.09375 -1.8125 6.828125 -1.40625 6.484375 -1.0625 C 6.148438 -0.726562 5.742188 -0.46875 5.265625 -0.28125 C 4.796875 -0.09375 4.269531 0 3.6875 0 L 0.765625 0 L 0.765625 -7.640625 L 3.6875 -7.640625 C 4.269531 -7.640625 4.796875 -7.546875 5.265625 -7.359375 C 5.742188 -7.171875 6.148438 -6.910156 6.484375 -6.578125 C 6.828125 -6.242188 7.09375 -5.84375 7.28125 -5.375 C 7.46875 -4.90625 7.5625 -4.390625 7.5625 -3.828125 Z M 6.109375 -3.828125 C 6.109375 -4.242188 6.050781 -4.617188 5.9375 -4.953125 C 5.820312 -5.285156 5.660156 -5.566406 5.453125 -5.796875 C 5.242188 -6.023438 4.988281 -6.203125 4.6875 -6.328125 C 4.394531 -6.453125 4.0625 -6.515625 3.6875 -6.515625 L 2.203125 -6.515625 L 2.203125 -1.125 L 3.6875 -1.125 C 4.0625 -1.125 4.394531 -1.1875 4.6875 -1.3125 C 4.988281 -1.4375 5.242188 -1.613281 5.453125 -1.84375 C 5.660156 -2.070312 5.820312 -2.351562 5.9375 -2.6875 C 6.050781 -3.019531 6.109375 -3.398438 6.109375 -3.828125 Z M 6.109375 -3.828125"/></g><g id="l"><path d="M 0.765625 0 L 0.765625 -7.640625 L 3.40625 -7.640625 C 3.90625 -7.640625 4.332031 -7.59375 4.6875 -7.5 C 5.039062 -7.40625 5.332031 -7.269531 5.5625 -7.09375 C 5.789062 -6.914062 5.957031 -6.703125 6.0625 -6.453125 C 6.164062 -6.203125 6.21875 -5.921875 6.21875 -5.609375 C 6.21875 -5.429688 6.191406 -5.257812 6.140625 -5.09375 C 6.085938 -4.925781 6.003906 -4.769531 5.890625 -4.625 C 5.785156 -4.488281 5.644531 -4.363281 5.46875 -4.25 C 5.300781 -4.132812 5.097656 -4.035156 4.859375 -3.953125 C 5.910156 -3.710938 6.4375 -3.144531 6.4375 -2.25 C 6.4375 -1.925781 6.375 -1.625 6.25 -1.34375 C 6.132812 -1.070312 5.957031 -0.835938 5.71875 -0.640625 C 5.476562 -0.441406 5.1875 -0.285156 4.84375 -0.171875 C 4.5 -0.0546875 4.101562 0 3.65625 0 Z M 2.1875 -3.359375 L 2.1875 -1.109375 L 3.640625 -1.109375 C 3.898438 -1.109375 4.117188 -1.140625 4.296875 -1.203125 C 4.472656 -1.265625 4.613281 -1.347656 4.71875 -1.453125 C 4.832031 -1.566406 4.910156 -1.691406 4.953125 -1.828125 C 5.003906 -1.972656 5.03125 -2.125 5.03125 -2.28125 C 5.03125 -2.445312 5.003906 -2.59375 4.953125 -2.71875 C 4.898438 -2.851562 4.816406 -2.96875 4.703125 -3.0625 C 4.585938 -3.15625 4.441406 -3.226562 4.265625 -3.28125 C 4.097656 -3.332031 3.890625 -3.359375 3.640625 -3.359375 Z M 2.1875 -4.34375 L 3.328125 -4.34375 C 3.816406 -4.34375 4.1875 -4.425781 4.4375 -4.59375 C 4.6875 -4.769531 4.8125 -5.050781 4.8125 -5.4375 C 4.8125 -5.84375 4.695312 -6.128906 4.46875 -6.296875 C 4.238281 -6.460938 3.882812 -6.546875 3.40625 -6.546875 L 2.1875 -6.546875 Z M 2.1875 -4.34375"/></g><g id="m"><path d="M 2.1875 -1.171875 L 5.25 -1.171875 L 5.25 0 L 0.765625 0 L 0.765625 -7.640625 L 2.1875 -7.640625 Z M 2.1875 -1.171875"/></g><g id="n"><path d="M 5.59375 -7.640625 L 5.59375 -6.515625 L 2.203125 -6.515625 L 2.203125 -4.390625 L 4.875 -4.390625 L 4.875 -3.296875 L 2.203125 -3.296875 L 2.203125 -1.140625 L 5.59375 -1.140625 L 5.59375 0 L 0.765625 0 L 0.765625 -7.640625 Z M 5.59375 -7.640625"/></g><g id="o"><path d="M 4.875 -6.25 C 4.832031 -6.175781 4.785156 -6.125 4.734375 -6.09375 C 4.679688 -6.0625 4.617188 -6.046875 4.546875 -6.046875 C 4.484375 -6.046875 4.40625 -6.070312 4.3125 -6.125 C 4.226562 -6.175781 4.125 -6.234375 4 -6.296875 C 3.882812 -6.367188 3.742188 -6.429688 3.578125 -6.484375 C 3.421875 -6.546875 3.234375 -6.578125 3.015625 -6.578125 C 2.816406 -6.578125 2.644531 -6.550781 2.5 -6.5 C 2.351562 -6.457031 2.226562 -6.390625 2.125 -6.296875 C 2.03125 -6.210938 1.957031 -6.113281 1.90625 -6 C 1.851562 -5.882812 1.828125 -5.753906 1.828125 -5.609375 C 1.828125 -5.429688 1.875 -5.28125 1.96875 -5.15625 C 2.070312 -5.039062 2.207031 -4.941406 2.375 -4.859375 C 2.539062 -4.773438 2.726562 -4.695312 2.9375 -4.625 C 3.15625 -4.5625 3.375 -4.488281 3.59375 -4.40625 C 3.8125 -4.332031 4.023438 -4.242188 4.234375 -4.140625 C 4.453125 -4.046875 4.644531 -3.921875 4.8125 -3.765625 C 4.976562 -3.609375 5.109375 -3.421875 5.203125 -3.203125 C 5.304688 -2.984375 5.359375 -2.710938 5.359375 -2.390625 C 5.359375 -2.046875 5.296875 -1.722656 5.171875 -1.421875 C 5.054688 -1.117188 4.882812 -0.851562 4.65625 -0.625 C 4.4375 -0.40625 4.160156 -0.234375 3.828125 -0.109375 C 3.503906 0.015625 3.128906 0.078125 2.703125 0.078125 C 2.460938 0.078125 2.222656 0.0507812 1.984375 0 C 1.742188 -0.0390625 1.515625 -0.101562 1.296875 -0.1875 C 1.085938 -0.28125 0.882812 -0.382812 0.6875 -0.5 C 0.5 -0.625 0.332031 -0.765625 0.1875 -0.921875 L 0.609375 -1.609375 C 0.640625 -1.648438 0.679688 -1.6875 0.734375 -1.71875 C 0.796875 -1.757812 0.859375 -1.78125 0.921875 -1.78125 C 1.015625 -1.78125 1.109375 -1.742188 1.203125 -1.671875 C 1.304688 -1.597656 1.425781 -1.515625 1.5625 -1.421875 C 1.707031 -1.335938 1.875 -1.257812 2.0625 -1.1875 C 2.25 -1.113281 2.476562 -1.078125 2.75 -1.078125 C 3.15625 -1.078125 3.46875 -1.171875 3.6875 -1.359375 C 3.90625 -1.554688 4.015625 -1.832031 4.015625 -2.1875 C 4.015625 -2.394531 3.960938 -2.5625 3.859375 -2.6875 C 3.765625 -2.8125 3.632812 -2.914062 3.46875 -3 C 3.300781 -3.09375 3.113281 -3.164062 2.90625 -3.21875 C 2.695312 -3.28125 2.484375 -3.347656 2.265625 -3.421875 C 2.046875 -3.492188 1.828125 -3.578125 1.609375 -3.671875 C 1.398438 -3.773438 1.210938 -3.90625 1.046875 -4.0625 C 0.878906 -4.21875 0.742188 -4.414062 0.640625 -4.65625 C 0.546875 -4.894531 0.5 -5.1875 0.5 -5.53125 C 0.5 -5.8125 0.550781 -6.082031 0.65625 -6.34375 C 0.769531 -6.613281 0.929688 -6.847656 1.140625 -7.046875 C 1.359375 -7.253906 1.625 -7.421875 1.9375 -7.546875 C 2.25 -7.671875 2.601562 -7.734375 3 -7.734375 C 3.445312 -7.734375 3.859375 -7.660156 4.234375 -7.515625 C 4.617188 -7.378906 4.945312 -7.179688 5.21875 -6.921875 Z M 4.875 -6.25"/></g><g id="p"><path d="M 4.171875 -2.96875 L 4.171875 0 L 2.75 0 L 2.75 -2.96875 L -0.03125 -7.640625 L 1.21875 -7.640625 C 1.34375 -7.640625 1.441406 -7.609375 1.515625 -7.546875 C 1.585938 -7.492188 1.644531 -7.421875 1.6875 -7.328125 L 3.09375 -4.78125 C 3.175781 -4.625 3.242188 -4.476562 3.296875 -4.34375 C 3.359375 -4.207031 3.414062 -4.078125 3.46875 -3.953125 C 3.507812 -4.078125 3.5625 -4.207031 3.625 -4.34375 C 3.6875 -4.476562 3.753906 -4.625 3.828125 -4.78125 L 5.21875 -7.328125 C 5.257812 -7.410156 5.316406 -7.484375 5.390625 -7.546875 C 5.472656 -7.609375 5.578125 -7.640625 5.703125 -7.640625 L 6.953125 -7.640625 Z M 4.171875 -2.96875"/></g><g id="q"><path d="M 3.84375 -1.140625 C 4.125 -1.140625 4.367188 -1.1875 4.578125 -1.28125 C 4.796875 -1.375 4.976562 -1.503906 5.125 -1.671875 C 5.28125 -1.835938 5.394531 -2.035156 5.46875 -2.265625 C 5.550781 -2.503906 5.59375 -2.769531 5.59375 -3.0625 L 5.59375 -7.640625 L 7.03125 -7.640625 L 7.03125 -3.0625 C 7.03125 -2.613281 6.953125 -2.195312 6.796875 -1.8125 C 6.648438 -1.425781 6.441406 -1.09375 6.171875 -0.8125 C 5.898438 -0.53125 5.566406 -0.3125 5.171875 -0.15625 C 4.773438 0 4.332031 0.078125 3.84375 0.078125 C 3.351562 0.078125 2.910156 0 2.515625 -0.15625 C 2.128906 -0.3125 1.800781 -0.53125 1.53125 -0.8125 C 1.257812 -1.09375 1.050781 -1.425781 0.90625 -1.8125 C 0.757812 -2.195312 0.6875 -2.613281 0.6875 -3.0625 L 0.6875 -7.640625 L 2.109375 -7.640625 L 2.109375 -3.078125 C 2.109375 -2.785156 2.144531 -2.519531 2.21875 -2.28125 C 2.300781 -2.039062 2.414062 -1.835938 2.5625 -1.671875 C 2.707031 -1.503906 2.890625 -1.375 3.109375 -1.28125 C 3.328125 -1.1875 3.570312 -1.140625 3.84375 -1.140625 Z M 3.84375 -1.140625"/></g></defs><path fill="#FFF" d="M-37.5 -37.5H412.5V412.5H-37.5z"/><path fill="#FFF" d="M-37.5 -37.5H412.5V412.5H-37.5z"/><path fill="#44D9E6" d="M 43.585938 160.566406 C 39.144531 160.566406 35.546875 156.96875 35.546875 152.53125 C 35.546875 148.09375 39.144531 144.496094 43.585938 144.496094 L 102.992188 144.496094 C 107.429688 144.496094 111.027344 148.09375 111.027344 152.53125 C 111.027344 156.96875 107.429688 160.566406 102.992188 160.566406 Z M 43.585938 160.566406"/><path fill="#44D9E6" d="M 43.585938 184.371094 C 39.144531 184.371094 35.546875 180.773438 35.546875 176.335938 C 35.546875 171.898438 39.144531 168.300781 43.585938 168.300781 L 87.894531 168.300781 C 92.332031 168.300781 95.929688 171.898438 95.929688 176.335938 C 95.929688 180.773438 92.332031 184.371094 87.894531 184.371094 Z M 43.585938 184.371094"/><path fill="#44D9E6" d="M 43.585938 207.597656 C 39.144531 207.597656 35.546875 204 35.546875 199.558594 C 35.546875 195.121094 39.144531 191.523438 43.585938 191.523438 L 76.28125 191.523438 C 80.722656 191.523438 84.320312 195.121094 84.320312 199.558594 C 84.320312 204 80.722656 207.597656 76.28125 207.597656 Z M 43.585938 207.597656"/><path fill="#44D9E6" d="M 43.585938 230.820312 C 39.144531 230.820312 35.546875 227.222656 35.546875 222.785156 C 35.546875 218.347656 39.144531 214.746094 43.585938 214.746094 L 65.832031 214.746094 C 70.269531 214.746094 73.867188 218.347656 73.867188 222.785156 C 73.867188 227.222656 70.269531 230.820312 65.832031 230.820312 Z M 43.585938 230.820312"/><g><use x="133.317" y="178.433" xmlns:xlink="http://www.w3.org/1999/xlink" xlink:href="#a" xlink:type="simple" xlink:actuate="onLoad" xlink:show="embed"/></g><g><use x="163.696" y="178.433" xmlns:xlink="http://www.w3.org/1999/xlink" xlink:href="#b" xlink:type="simple" xlink:actuate="onLoad" xlink:show="embed"/></g><g><use x="192.237" y="178.433" xmlns:xlink="http://www.w3.org/1999/xlink" xlink:href="#c" xlink:type="simple" xlink:actuate="onLoad" xlink:show="embed"/></g><g><use x="133.317" y="210.683" xmlns:xlink="http://www.w3.org/1999/xlink" xlink:href="#d" xlink:type="simple" xlink:actuate="onLoad" xlink:show="embed"/></g><g><use x="164.336" y="210.683" xmlns:xlink="http://www.w3.org/1999/xlink" xlink:href="#e" xlink:type="simple" xlink:actuate="onLoad" xlink:show="embed"/></g><g><use x="194.235" y="210.683" xmlns:xlink="http://www.w3.org/1999/xlink" xlink:href="#f" xlink:type="simple" xlink:actuate="onLoad" xlink:show="embed"/></g><g><use x="223.535" y="210.683" xmlns:xlink="http://www.w3.org/1999/xlink" xlink:href="#b" xlink:type="simple" xlink:actuate="onLoad" xlink:show="embed"/></g><g><use x="252.075" y="210.683" xmlns:xlink="http://www.w3.org/1999/xlink" xlink:href="#a" xlink:type="simple" xlink:actuate="onLoad" xlink:show="embed"/></g><g><use x="282.454" y="210.683" xmlns:xlink="http://www.w3.org/1999/xlink" xlink:href="#g" xlink:type="simple" xlink:actuate="onLoad" xlink:show="embed"/></g><g><use x="313.473" y="210.683" xmlns:xlink="http://www.w3.org/1999/xlink" xlink:href="#a" xlink:type="simple" xlink:actuate="onLoad" xlink:show="embed"/></g><g fill="#2A878F"><use x="133.317" y="234.15" xmlns:xlink="http://www.w3.org/1999/xlink" xlink:href="#h" xlink:type="simple" xlink:actuate="onLoad" xlink:show="embed"/></g><g fill="#2A878F"><use x="142.556" y="234.15" xmlns:xlink="http://www.w3.org/1999/xlink" xlink:href="#i" xlink:type="simple" xlink:actuate="onLoad" xlink:show="embed"/></g><g fill="#2A878F"><use x="152.605" y="234.15" xmlns:xlink="http://www.w3.org/1999/xlink" xlink:href="#j" xlink:type="simple" xlink:actuate="onLoad" xlink:show="embed"/></g><g fill="#2A878F"><use x="162.103" y="234.15" xmlns:xlink="http://www.w3.org/1999/xlink" xlink:href="#k" xlink:type="simple" xlink:actuate="onLoad" xlink:show="embed"/></g><g fill="#2A878F"><use x="165.734" y="234.15" xmlns:xlink="http://www.w3.org/1999/xlink" xlink:href="#l" xlink:type="simple" xlink:actuate="onLoad" xlink:show="embed"/></g><g fill="#2A878F"><use x="174.216" y="234.15" xmlns:xlink="http://www.w3.org/1999/xlink" xlink:href="#m" xlink:type="simple" xlink:actuate="onLoad" xlink:show="embed"/></g><g fill="#2A878F"><use x="181.275" y="234.15" xmlns:xlink="http://www.w3.org/1999/xlink" xlink:href="#n" xlink:type="simple" xlink:actuate="onLoad" xlink:show="embed"/></g><g fill="#2A878F"><use x="188.921" y="234.15" xmlns:xlink="http://www.w3.org/1999/xlink" xlink:href="#o" xlink:type="simple" xlink:actuate="onLoad" xlink:show="embed"/></g><g fill="#2A878F"><use x="196.187" y="234.15" xmlns:xlink="http://www.w3.org/1999/xlink" xlink:href="#o" xlink:type="simple" xlink:actuate="onLoad" xlink:show="embed"/></g><g fill="#2A878F"><use x="203.452" y="234.15" xmlns:xlink="http://www.w3.org/1999/xlink" xlink:href="#k" xlink:type="simple" xlink:actuate="onLoad" xlink:show="embed"/></g><g fill="#2A878F"><use x="207.083" y="234.15" xmlns:xlink="http://www.w3.org/1999/xlink" xlink:href="#p" xlink:type="simple" xlink:actuate="onLoad" xlink:show="embed"/></g><g fill="#2A878F"><use x="215.597" y="234.15" xmlns:xlink="http://www.w3.org/1999/xlink" xlink:href="#i" xlink:type="simple" xlink:actuate="onLoad" xlink:show="embed"/></g><g fill="#2A878F"><use x="225.645" y="234.15" xmlns:xlink="http://www.w3.org/1999/xlink" xlink:href="#q" xlink:type="simple" xlink:actuate="onLoad" xlink:show="embed"/></g></svg>