<?xml version="1.0" standalone="no"?>
<!DOCTYPE svg PUBLIC "-//W3C//DTD SVG 20010904//EN"
 "http://www.w3.org/TR/2001/REC-SVG-20010904/DTD/svg10.dtd">
<svg version="1.0" xmlns="http://www.w3.org/2000/svg"
 width="1200.000000pt" height="1600.000000pt" viewBox="0 0 1200.000000 1600.000000"
 preserveAspectRatio="xMidYMid meet">

<g transform="translate(0.000000,1600.000000) scale(0.100000,-0.100000)"
fill="#000000" stroke="none">
<path d="M5698 7539 c-29 -10 -62 -18 -74 -18 -26 -1 -64 -36 -64 -61 0 -10
-9 -21 -20 -25 -30 -10 -84 -78 -102 -132 -19 -56 -33 -289 -18 -298 12 -7 1
-57 -14 -67 -7 -5 -5 -8 5 -8 9 0 23 -7 30 -16 12 -15 11 -16 -7 -10 -26 8
-33 -11 -24 -64 l6 -35 12 30 11 30 0 -35 c-2 -70 3 -63 17 24 7 49 15 91 17
93 2 2 18 0 35 -3 25 -5 32 -13 38 -38 8 -40 51 -86 81 -86 13 0 32 -9 42 -19
13 -13 21 -16 24 -8 2 7 10 0 17 -15 7 -15 21 -30 32 -33 22 -8 23 -18 3 -35
-25 -21 -65 -4 -72 30 -3 17 -8 30 -12 30 -3 0 -24 -12 -46 -25 -22 -14 -47
-25 -56 -25 -36 0 -68 -116 -47 -169 5 -14 12 -64 14 -111 2 -47 8 -100 13
-119 6 -18 10 -36 9 -40 -4 -14 24 -121 33 -126 5 -4 9 -13 9 -21 0 -25 33
-52 72 -59 21 -4 42 -13 49 -21 21 -25 26 -15 31 62 6 84 17 105 47 87 15 -10
20 -9 25 2 7 18 45 20 48 3 1 -16 3 -24 13 -72 6 -28 4 -40 -6 -47 -11 -7 -11
-9 2 -9 9 0 23 -9 30 -19 13 -18 17 -19 53 -6 44 16 113 78 120 109 5 20 -1
-127 -6 -171 -4 -32 16 -28 24 5 5 15 11 77 14 137 5 93 3 117 -12 155 -30 75
-24 161 18 250 32 69 60 141 63 165 1 6 3 12 4 15 1 3 4 16 7 28 2 13 11 33
19 45 19 27 20 76 1 83 -11 4 -10 17 6 72 10 37 18 94 19 127 0 33 5 81 11
107 11 43 9 54 -17 120 -15 40 -39 84 -51 98 -13 14 -34 37 -47 52 -18 22 -35
29 -87 37 -36 5 -90 17 -120 26 -137 40 -164 42 -222 24z m32 -205 c0 -8 -5
-12 -10 -9 -6 4 -8 11 -5 16 9 14 15 11 15 -7z m90 6 c0 -5 -5 -10 -11 -10 -5
0 -7 5 -4 10 3 6 8 10 11 10 2 0 4 -4 4 -10z m52 -57 c10 -11 13 -25 9 -37 -7
-17 -8 -17 -14 -3 -3 8 -21 18 -39 20 -30 4 -31 5 -10 12 12 4 22 11 22 16 0
15 16 10 32 -8z m73 -23 c3 -5 -1 -10 -10 -10 -9 0 -13 5 -10 10 3 6 8 10 10
10 2 0 7 -4 10 -10z m-338 -42 c-3 -7 -5 -2 -5 12 0 14 2 19 5 13 2 -7 2 -19
0 -25z m488 12 c3 -5 1 -10 -4 -10 -6 0 -11 5 -11 10 0 6 2 10 4 10 3 0 8 -4
11 -10z m-530 -50 c2 -27 0 -29 -26 -26 -41 4 -43 9 -14 41 30 31 37 28 40
-15z m465 20 c0 -5 -2 -10 -4 -10 -3 0 -8 5 -11 10 -3 6 -1 10 4 10 6 0 11 -4
11 -10z m-117 -17 c-2 -7 4 -10 12 -7 9 4 27 -7 45 -26 16 -17 38 -32 49 -33
11 0 18 -4 16 -8 -3 -3 8 -12 22 -18 21 -10 24 -14 13 -21 -8 -5 -21 -5 -31 1
-22 11 -122 11 -172 0 -20 -5 -39 -5 -42 0 -7 10 -232 6 -256 -5 -18 -8 -21
-36 -5 -37 8 0 -68 -28 -81 -29 0 0 1 9 4 20 12 46 155 151 232 170 54 13 197
8 194 -7z m175 -15 c19 -19 14 -29 -8 -16 -20 13 -27 28 -12 28 4 0 13 -5 20
-12z m-598 -58 c0 -5 -2 -10 -4 -10 -3 0 -8 5 -11 10 -3 6 -1 10 4 10 6 0 11
-4 11 -10z m-25 -20 c3 -5 1 -10 -4 -10 -6 0 -11 5 -11 10 0 6 2 10 4 10 3 0
8 -4 11 -10z m-32 -60 c-3 -12 -8 -19 -11 -16 -5 6 5 36 12 36 2 0 2 -9 -1
-20z m257 -20 c0 -5 -13 -10 -30 -10 -16 0 -30 5 -30 10 0 6 14 10 30 10 17 0
30 -4 30 -10z m-85 -69 l-30 -7 25 -7 c14 -4 37 -7 53 -7 18 0 27 -5 27 -16 0
-14 2 -14 16 -3 9 7 25 13 36 14 11 1 24 8 29 16 7 12 9 12 9 -1 0 -8 -9 -29
-19 -46 -22 -36 -65 -48 -130 -38 -46 7 -61 26 -61 73 0 29 2 31 38 30 36 -1
36 -2 7 -8z m254 -55 c17 -30 38 -57 46 -60 35 -13 10 -24 -61 -24 -42 -1 -84
-4 -95 -7 -37 -12 -40 6 -7 44 18 21 41 52 50 69 9 18 21 32 27 32 5 0 23 -24
40 -54z m226 12 c-13 -62 -62 -81 -147 -58 -36 10 -58 34 -58 62 0 11 2 11 9
0 5 -8 31 -15 62 -17 30 -2 48 -1 42 2 -24 9 -13 23 16 23 17 0 33 5 36 10 3
6 15 10 26 10 18 0 20 -4 14 -32z m35 -17 c0 -10 -7 -24 -15 -31 -8 -7 -15
-21 -15 -32 0 -16 -5 -19 -22 -14 -13 3 -32 6 -43 7 -15 0 -12 3 10 11 42 15
53 25 60 59 7 31 25 31 25 0z m-66 -112 c-22 -25 -60 -24 -74 0 -9 18 -6 20
32 23 56 4 63 0 42 -23z m-243 -76 c10 3 22 1 25 -5 10 -15 -3 -20 -34 -13
-25 5 -29 10 -24 28 5 19 7 20 10 4 3 -13 10 -17 23 -14z m4 -63 c23 -6 16 -8
-32 -8 -34 1 -60 5 -57 9 6 11 47 10 89 -1z m-95 -49 c25 -20 51 -30 93 -35
31 -4 57 -11 57 -16 0 -23 -63 -41 -128 -37 l-67 4 -1 34 c0 19 -2 39 -3 44
-5 16 -2 35 7 35 4 0 23 -13 42 -29z"/>
<path d="M5451 6664 c0 -11 3 -14 6 -6 3 7 2 16 -1 19 -3 4 -6 -2 -5 -13z"/>
<path d="M5485 6260 c2 -36 6 -74 9 -85 15 -57 47 -182 50 -197 7 -26 27 -60
33 -54 3 2 -6 40 -20 83 -25 75 -62 226 -71 288 -3 17 -3 1 -1 -35z"/>
<path d="M5812 6145 c0 -16 2 -22 5 -12 2 9 2 23 0 30 -3 6 -5 -1 -5 -18z"/>
<path d="M5807 6075 c-6 -20 -5 -31 8 -72 12 -38 23 -26 15 15 -5 20 -10 46
-12 57 l-4 20 -7 -20z"/>
<path d="M5850 6044 c0 -9 31 -37 36 -32 9 9 -8 38 -22 38 -8 0 -14 -3 -14 -6z"/>
<path d="M5893 5913 l-22 -28 -1 25 c-1 22 -2 23 -11 7 -6 -9 -14 -15 -19 -12
-5 3 -14 -4 -20 -16 -9 -17 -8 -25 7 -41 13 -15 15 -22 6 -25 -7 -3 -13 -14
-13 -26 0 -18 -2 -19 -11 -7 -8 12 -9 11 -6 -5 2 -11 8 -19 14 -18 16 3 29
-40 14 -45 -16 -5 -14 -57 4 -72 8 -7 15 -24 15 -39 0 -22 -7 -29 -35 -40 -24
-8 -37 -20 -42 -39 -3 -15 -14 -34 -25 -43 -10 -9 -18 -29 -18 -44 0 -32 -39
-145 -50 -145 -4 0 -11 -12 -15 -27 -3 -15 -10 -30 -14 -33 -13 -9 -71 -98
-71 -110 0 -21 -113 -120 -137 -120 -13 0 -28 -9 -35 -20 -28 -44 -39 -6 -13
44 8 15 15 30 15 32 0 12 -109 -53 -129 -77 -13 -16 -28 -29 -33 -29 -5 0 -30
-17 -56 -39 -71 -59 -133 -82 -230 -86 -46 -2 -86 -6 -89 -9 -4 -3 -20 -6 -37
-6 -18 0 -40 -6 -51 -13 -25 -17 -95 -37 -127 -37 -37 0 -48 -19 -45 -82 l2
-55 30 8 c53 16 150 10 246 -15 133 -33 184 -60 259 -135 63 -63 68 -66 145
-82 111 -23 235 -73 308 -124 216 -152 369 -240 395 -225 9 5 76 35 147 66
254 110 292 132 390 226 69 66 144 109 265 153 75 27 87 34 102 66 9 19 24 41
33 49 15 13 12 15 -27 25 l-43 10 -11 80 c-13 95 -19 111 -45 118 -10 3 -19
10 -19 17 0 6 5 8 12 4 7 -4 8 -3 4 4 -4 6 -13 9 -21 5 -8 -3 -15 -1 -15 5 0
5 -13 15 -30 22 -16 7 -27 17 -23 23 3 6 1 7 -5 3 -7 -4 -22 0 -34 8 -49 35
-37 13 26 -46 40 -39 72 -79 81 -103 13 -34 13 -37 1 -21 -8 10 -19 15 -25 11
-6 -3 -11 -1 -11 4 0 6 -6 11 -14 11 -17 0 -80 32 -84 43 -2 4 -7 5 -11 3 -8
-6 -75 27 -137 66 -52 33 -106 87 -99 99 4 5 0 7 -7 4 -13 -5 -78 48 -78 64 0
4 -29 44 -64 87 -35 43 -63 82 -60 85 2 4 -3 12 -11 19 -8 7 -15 10 -15 7 0
-13 -83 24 -101 45 -10 13 -28 47 -39 76 -29 77 -26 124 7 91 8 -8 10 0 6 32
-3 24 -10 46 -14 49 -5 3 -17 42 -28 85 -15 65 -19 73 -20 43 -1 -21 -5 -38
-11 -38 -17 0 -11 -29 10 -50 14 -14 18 -28 14 -45 -6 -24 -24 -35 -24 -15 0
6 -8 10 -18 10 -10 0 -24 6 -31 13 -10 8 -12 8 -7 0 3 -6 2 -14 -4 -18 -5 -3
-10 0 -10 7 0 9 -3 9 -10 -2 -11 -18 -12 -18 -15 118 -2 83 -1 90 11 66 8 -14
14 -36 14 -49 0 -20 21 -34 53 -35 14 0 -3 64 -20 77 -8 6 -12 17 -7 24 5 9
11 7 21 -7 13 -17 14 -14 8 31 -6 52 -20 78 -33 60 -4 -6 -14 -10 -22 -10 -8
0 -14 -6 -12 -12 1 -7 -2 -13 -8 -13 -5 0 -10 12 -10 26 0 21 4 24 19 19 26
-8 43 23 33 59 l-7 27 -22 -28z m-36 -585 c-3 -8 -6 -5 -6 6 -1 11 2 17 5 13
3 -3 4 -12 1 -19z m-80 -170 c-3 -8 -6 -5 -6 6 -1 11 2 17 5 13 3 -3 4 -12 1
-19z m118 -210 c6 -26 11 -28 53 -30 44 -1 45 -2 9 -5 -37 -4 -38 -5 -37 -46
0 -75 -1 -77 -34 -76 -17 1 -24 3 -15 6 20 5 39 45 39 83 0 28 -13 36 -51 32
-5 -1 -5 60 0 64 12 9 32 -6 36 -28z m122 -120 c-3 -8 -6 -5 -6 6 -1 11 2 17
5 13 3 -3 4 -12 1 -19z m27 -63 c-4 -8 -10 -12 -15 -9 -11 6 -2 24 11 24 5 0
7 -7 4 -15z m-395 -74 l-1 -26 -7 25 c-5 18 -15 26 -34 28 -27 3 -37 27 -14
35 20 7 57 -34 56 -62z m305 34 c3 -8 1 -15 -3 -15 -5 0 -11 7 -15 15 -3 8 -1
15 3 15 5 0 11 -7 15 -15z m-149 -15 c3 -11 14 -20 22 -20 22 0 14 -6 -17 -13
-22 -5 -25 -3 -26 23 -1 34 12 40 21 10z m275 -61 c-34 -33 -60 -63 -57 -65 3
-3 20 -2 39 3 55 14 122 10 126 -8 3 -19 -62 -36 -163 -44 -38 -3 -115 -19
-170 -36 -268 -82 -288 -86 -373 -70 -84 15 -142 32 -142 41 0 9 51 20 94 20
35 1 65 19 59 37 -8 24 52 36 212 43 116 5 168 11 190 23 17 9 41 21 55 27 14
5 45 21 69 35 24 14 46 23 50 21 4 -3 18 4 31 15 51 39 40 17 -20 -42z m-183
45 c-3 -3 -12 -4 -19 -1 -8 3 -5 6 6 6 11 1 17 -2 13 -5z m343 -202 c0 -20
-77 -46 -148 -52 -88 -6 -111 -27 -35 -32 l48 -3 -30 -13 c-36 -16 -274 -20
-365 -6 l-65 10 40 12 c22 7 78 12 125 12 47 0 123 9 170 20 47 11 100 20 118
20 19 0 48 6 65 14 18 8 41 17 52 19 11 3 21 5 23 6 1 0 2 -2 2 -7z"/>
<path d="M5781 5914 c0 -11 3 -14 6 -6 3 7 2 16 -1 19 -3 4 -6 -2 -5 -13z"/>
<path d="M5140 5744 c-6 -14 -10 -34 -10 -45 0 -10 -4 -19 -9 -19 -11 0 -31
-48 -33 -80 0 -14 2 -46 7 -72 4 -31 4 -48 -3 -48 -5 0 -13 -15 -16 -32 -16
-79 -19 -88 -28 -88 -5 0 -8 -8 -7 -17 1 -10 1 -25 0 -33 -1 -13 -2 -13 -11 0
-8 13 -10 13 -10 -2 0 -9 5 -20 10 -23 6 -3 10 -21 10 -39 0 -48 -21 -146 -32
-146 -5 0 -6 -4 -3 -10 3 -5 1 -10 -4 -10 -6 0 -11 -6 -11 -14 0 -8 -15 -16
-37 -20 -80 -13 -113 -24 -113 -37 0 -5 -7 -9 -15 -9 -9 0 -27 -11 -40 -24
-13 -13 -27 -21 -30 -17 -4 3 -6 2 -4 -4 3 -14 -12 -46 -20 -41 -4 3 -8 -4 -8
-15 -2 -16 8 -11 49 26 61 55 145 95 258 124 97 25 192 65 215 91 23 25 11 96
-16 96 -10 0 -19 -4 -19 -9 0 -5 -7 -4 -15 3 -9 7 -13 15 -10 18 3 3 1 10 -4
16 -5 6 -6 34 -1 61 8 53 6 160 -3 185 -13 35 -26 162 -22 209 6 56 0 65 -15
25z"/>
<path d="M5881 5704 c0 -11 3 -14 6 -6 3 7 2 16 -1 19 -3 4 -6 -2 -5 -13z"/>
<path d="M5780 5690 c0 -5 4 -10 9 -10 6 0 13 5 16 10 3 6 -1 10 -9 10 -9 0
-16 -4 -16 -10z"/>
<path d="M6423 5643 c-6 -23 -15 -37 -23 -35 -11 2 -12 -41 -6 -240 6 -216 6
-241 -8 -223 -8 11 -18 16 -23 11 -9 -9 80 -92 108 -99 17 -5 17 12 -1 38 -4
6 -8 92 -8 193 -1 133 2 193 12 225 8 23 18 68 21 100 7 53 6 57 -13 57 -11 0
-27 3 -35 6 -11 4 -17 -6 -24 -33z"/>
<path d="M5300 5450 c0 -82 0 -153 0 -157 0 -5 15 -8 33 -8 l32 0 5 75 5 75 8
-78 c9 -77 9 -78 35 -75 25 3 28 8 38 73 l11 70 2 -57 c0 -32 4 -58 9 -58 4 0
19 12 35 25 27 24 27 26 27 140 l0 115 -49 0 -50 0 -6 -47 c-9 -69 -12 -72
-19 -28 -16 90 -12 85 -66 85 l-50 0 0 -150z"/>
<path d="M5570 5488 l1 -93 24 30 c36 43 57 92 53 123 -3 23 -8 27 -40 30
l-38 3 0 -93z"/>
<path d="M6095 5555 c-35 -34 -31 -69 13 -128 l37 -52 3 78 c3 76 14 99 26 55
3 -13 6 -33 6 -45 0 -20 5 -23 36 -23 l37 0 -5 52 c-7 63 -32 88 -90 88 -28 0
-46 -7 -63 -25z"/>
<path d="M6770 5465 c0 -8 4 -15 10 -15 5 0 7 7 4 15 -4 8 -8 15 -10 15 -2 0
-4 -7 -4 -15z"/>
<path d="M6766 5413 c-4 -9 0 -23 9 -32 13 -14 15 -12 15 17 0 34 -14 43 -24
15z"/>
<path d="M6180 5367 c0 -42 45 -91 61 -67 5 8 8 33 7 55 -3 37 -5 40 -35 43
-31 3 -33 2 -33 -31z"/>
<path d="M5290 5214 c0 -49 0 -49 57 -6 41 30 34 52 -18 52 l-39 0 0 -46z"/>
<path d="M7723 4500 c20 -37 21 -42 7 -67 -19 -35 -55 -42 -63 -13 -6 22 -33
19 -54 -7 -6 -8 -16 -12 -21 -9 -5 3 -42 -26 -82 -64 -45 -42 -86 -72 -104
-76 -17 -4 -40 -13 -51 -20 -11 -8 -32 -14 -48 -14 -20 0 -41 -12 -67 -37 -79
-78 -120 -113 -134 -113 -7 0 -19 -6 -25 -14 -10 -12 -64 -24 -134 -31 -9 -1
-23 -7 -29 -13 -7 -7 -25 -12 -40 -12 -27 0 -35 -3 -84 -28 -16 -8 -25 -7 -33
1 -8 8 -11 7 -11 -6 0 -12 -8 -17 -31 -17 -17 0 -38 -7 -47 -16 -12 -12 -27
-15 -64 -11 -39 5 -48 3 -48 -10 0 -12 -7 -14 -29 -10 -15 3 -32 2 -37 -2 -14
-13 -104 -32 -115 -25 -5 3 -16 1 -23 -5 -10 -8 -27 -8 -65 0 -28 6 -57 9 -64
6 -6 -2 -23 0 -37 5 -20 7 -17 2 15 -27 70 -62 114 -82 192 -89 40 -3 90 -13
110 -20 25 -10 89 -16 183 -18 162 -4 183 -11 239 -74 19 -22 43 -49 53 -61
16 -17 18 -25 9 -42 -9 -15 -21 -20 -54 -20 -23 0 -80 -2 -127 -4 -74 -4 -89
-2 -115 17 -16 11 -36 20 -43 18 -6 -2 -27 3 -45 11 -73 32 -89 37 -117 37
-16 0 -32 -5 -36 -11 -4 -6 -17 -8 -33 -3 -14 4 -46 8 -71 9 -24 1 -46 7 -48
14 -2 6 -15 11 -28 11 -13 0 -24 5 -24 10 0 6 -6 10 -14 10 -7 0 -19 7 -26 15
-7 9 -21 13 -34 9 -13 -3 -29 2 -41 14 -23 21 -59 37 -50 22 13 -21 -19 -9
-41 15 -13 14 -32 25 -44 25 -11 0 -30 9 -42 20 -17 15 -24 17 -35 8 -16 -13
-33 3 -33 31 0 11 -4 11 -23 -2 -19 -12 -26 -13 -41 -2 -10 8 -25 11 -33 8
-14 -6 -60 35 -55 49 1 5 -2 8 -8 8 -5 0 -10 -4 -10 -9 0 -25 -60 -16 -81 12
-3 5 -12 7 -20 6 -32 -5 -87 14 -117 42 -19 17 -37 26 -46 23 -11 -4 -16 0
-16 14 0 16 5 19 23 14 12 -3 25 -10 29 -16 5 -7 8 -4 8 6 0 14 6 16 30 12 20
-5 30 -3 30 6 0 8 9 11 27 7 42 -8 58 15 44 64 -9 29 -17 39 -27 35 -8 -3 -14
-1 -14 4 0 6 -8 10 -18 10 -10 0 -23 5 -29 11 -6 6 -21 12 -34 14 -13 2 -42 9
-64 16 -46 14 -174 19 -181 7 -3 -4 -14 -8 -25 -8 -25 0 -25 -22 1 -38 17 -10
18 -15 8 -32 -15 -23 -40 -27 -32 -6 6 16 -49 36 -97 36 -15 0 -30 7 -33 16
-4 9 -13 14 -21 10 -9 -3 -30 3 -48 14 -17 11 -39 20 -48 20 -9 0 -32 10 -50
23 -19 13 -40 22 -47 19 -7 -2 -12 3 -12 12 0 9 -7 16 -16 16 -8 0 -22 7 -30
15 -9 8 -29 15 -46 15 -17 0 -36 7 -43 17 -15 21 -45 10 -45 -16 0 -25 -11
-32 -38 -24 -13 3 -22 13 -22 24 0 23 -8 24 -32 2 -17 -15 -18 -15 -18 0 0 10
-7 17 -16 17 -8 0 -12 -4 -9 -10 3 -5 -3 -10 -14 -10 -12 0 -20 6 -19 13 2 8
-14 13 -48 15 -60 3 -64 -3 -64 -100 0 -69 24 -138 85 -238 24 -41 45 -80 45
-87 0 -25 71 -160 109 -208 22 -27 64 -90 94 -140 30 -49 89 -129 131 -177 87
-98 116 -113 247 -121 109 -7 137 -22 198 -107 56 -77 77 -90 174 -110 78 -16
122 -2 131 42 10 49 7 113 -6 126 -9 9 -9 18 0 37 10 22 18 25 64 25 134 0
274 22 413 65 262 82 247 80 505 82 129 0 292 -3 362 -8 142 -9 165 -18 276
-97 l63 -45 88 5 c52 3 102 12 124 23 93 44 84 219 -17 321 -32 32 -76 53 -76
36 0 -5 7 -15 15 -22 8 -7 17 -28 21 -47 7 -38 -13 -62 -52 -63 -41 0 -60 49
-26 69 21 13 18 13 -100 15 l-98 1 -77 79 -78 78 60 -6 c33 -3 74 -8 91 -12
26 -5 32 -2 37 15 3 12 13 21 23 21 19 0 157 65 192 92 13 9 54 29 92 43 78
30 114 64 130 125 6 22 33 76 60 121 59 97 75 162 67 276 -6 83 -26 133 -52
133 -10 0 -7 -12 8 -40z m-2435 -459 c3 -8 -1 -12 -9 -9 -7 2 -15 10 -17 17
-3 8 1 12 9 9 7 -2 15 -10 17 -17z m89 -55 c-14 -11 -15 -15 -5 -19 8 -4 7 -6
-4 -6 -10 -1 -18 5 -18 12 0 18 10 27 29 27 14 -1 13 -3 -2 -14z m-59 -525
c42 -21 67 -46 76 -77 5 -17 2 -20 -16 -18 -13 1 -33 3 -45 3 -25 1 -73 44
-73 66 0 16 10 45 16 45 3 0 21 -9 42 -19z m1994 -45 c14 -8 46 -17 70 -21 48
-8 68 -20 68 -41 0 -17 -33 -12 -105 18 -71 29 -78 33 -83 46 -5 16 17 15 50
-2z m-1793 -114 c44 -70 39 -90 -20 -77 -30 7 -31 9 -26 46 3 21 1 42 -4 45
-14 8 -11 34 5 34 8 0 28 -22 45 -48z"/>
<path d="M5080 4450 c0 -5 17 -10 38 -9 33 1 34 2 12 9 -36 11 -50 11 -50 0z"/>
<path d="M7113 4336 c3 -7 0 -19 -6 -25 -8 -8 -8 -11 0 -11 16 0 36 28 28 40
-9 15 -28 12 -22 -4z"/>
<path d="M7048 4323 c7 -3 16 -2 19 1 4 3 -2 6 -13 5 -11 0 -14 -3 -6 -6z"/>
<path d="M7055 4290 c27 -12 35 -12 35 0 0 6 -12 10 -27 9 -25 0 -26 -1 -8 -9z"/>
<path d="M7133 4293 c-7 -2 -13 -17 -12 -31 0 -26 1 -26 9 -4 5 12 16 22 25
22 8 0 15 5 15 10 0 10 -16 12 -37 3z"/>
<path d="M6908 4275 c-2 -3 -26 -8 -53 -11 -48 -5 -103 -38 -104 -60 -1 -19
27 -24 74 -14 24 5 51 7 60 4 9 -4 41 -1 71 6 42 10 54 17 54 33 0 13 5 17 15
14 26 -11 27 13 0 25 -22 10 -28 9 -36 -3 -6 -10 -9 -10 -9 -1 0 12 -61 18
-72 7z"/>
<path d="M5822 3944 c-15 -17 0 -54 23 -54 20 0 28 17 11 27 -7 4 -15 15 -17
25 -3 14 -6 14 -17 2z"/>
<path d="M5920 3890 c0 -5 5 -10 11 -10 5 0 7 5 4 10 -3 6 -8 10 -11 10 -2 0
-4 -4 -4 -10z"/>
<path d="M5676 3877 c3 -10 9 -15 12 -12 3 3 0 11 -7 18 -10 9 -11 8 -5 -6z"/>
</g>
</svg>
